<svg xmlns="http://www.w3.org/2000/svg" viewBox="0 0 500 500"><defs><style>.f79a275b-9990-446e-9150-bcd8c46ac1d8{fill:#fff;}.b5283eb5-7c19-4a94-96f3-99f2cee8474b{fill:#0e384f;}</style></defs><g id="af1665c1-1eb3-470f-bcba-40e58679d8da" data-name="Layer 2"><circle class="f79a275b-9990-446e-9150-bcd8c46ac1d8" cx="250" cy="250" r="242.8"/></g><g id="b994660c-fa5e-4ae3-9060-8d2d26af00f9" data-name="Layer 1"><path class="b5283eb5-7c19-4a94-96f3-99f2cee8474b" d="M249.42,495C112.4,494.58,4.59,384.49,5,245.44,5.46,114.2,117.76,3.74,251,5c143.21,1.34,246.35,119.77,244,251.31C492.54,386.33,382.15,495.45,249.42,495ZM81.72,231.85c6.12-1.37,3-5.22,2.24-8.41,4.81-.9,3.54-4.44,3.26-7.54,5.28-4.29,1.52-12.59,7.38-16.63l-.23-.19c-2.9,28.07-10.63,55-18.92,81.84-.61,2-1.6,4.16-4.5,3.66l0,0q3.61-10.26,7.23-20.54l.1-11.24c2.21-1.64,4-3.38.74-6.64-.2,2.73-.35,4.8-.47,6.91-3.33,3.58-1.8,7.31-.31,11-1.08.13-3,0-3.1.42-4.3,12.71-8.42,25.48-12.6,38.23-.52,1.6-.36,2.84,1.36,3.45a79.06,79.06,0,0,0,33.3,4.5c7.43-.65,7-9.22,9.72-14.37a68.22,68.22,0,0,0,5.2-14.25c7.5-27.81,10.93-56.36,14.64-84.82,3.26-25,2.86-25-22.29-28.83-1.08-.16-2.18-.22-3.25-.43-3.48-.68-5.7.62-6.27,4.17-2.33,14.67-7.17,28.91-7.4,43.94-3.59,1.37-1.25,5.43-3.3,7.58-.82,2.72-1.65,5.44-2.47,8.17v7.52a3.72,3.72,0,0,0,1-3.33C82.53,234.66,82.07,233.26,81.72,231.85Zm10,157.53c2.63-7.64,10.09-11.08,14.74-17,1.73-2.18,5.11-4.18,2.29-7.29-3.22-3.55-5.14.41-6.94,2.18q-14.05,13.8-27.76,27.93c-2.07,2.14-6.57,3.92-4.32,7.77,3.11,5.34,28.07-23.86,31.34-22.86.46,3.28-28.61,27-24,31.05,2.21,1.91,3.88.35,5.5-1.27C93,399.44,103.52,389,113.93,378.5c1.79-1.81,3.74-3.95.84-6.33-2.26-1.85-3.9,0-5.57,1.37C103.21,378.63,98.87,385.55,91.73,389.38ZM414.13,79.64c-5,9.93-26.09,27.32-33,35.56-1.58,1.88-4.43,3.65-2.15,6.36,2.91,3.46,5.1.36,7.08-1.59,8.54-8.42,17.24-16.7,25.37-25.49,2.77-3,10.23-5.31,6-10.65-4-5.11-6.32,4.41-10.74,3.49a26.59,26.59,0,0,1,1.21-2.91c1.36-2.43,6.71-3.91,2.62-7.66-3.83-3.52-5.73,1.21-7.72,3.13-9.88,9.54-19.51,19.33-29.23,29-1.78,1.77-4.17,3.51-1.57,6.25s4.41.55,6.33-1.19C386.61,106.54,404.47,85.55,414.13,79.64ZM191,440.35c1.71-2.77,5.74-6.17,7.51-8.91,1.25-1.95,4.47-3.7,1.23-6.22-2.54-2-4.69-.22-6.6,1.72q-17.69,17.85-35.44,35.62c-1.38,1.39-2.63,3-1.24,4.65a3.88,3.88,0,0,0,5,.54c4.25-2.75,6.84-7.93,11-10.83-1.54,1.51,29-26.39,28.14-24.57-1.21,2.48-37.45,36-33.29,39.29,3.53,2.74,5.77-1.25,7.95-3.41,11.31-11.19,22.59-22.4,33.74-33.75,1.51-1.54,5.17-2.93,2.91-5.86-1.67-2.17-4.59-1.85-6.77.14C201.17,432.39,194.91,436.7,191,440.35Zm74.7-419.48c9.19,3.57-69.83,63.7-32.93,45.09,10.49-10.58,23.38-21.41,33.73-32.13,5.43-5.62,12.16-10.18,15.81-17.49-5.05-3.27-7.74-.07-10.75,2.62s-4.74,6.57-9.23,7.08c.45-4.91,7.12-6,7.33-11.29-7.89-.34-55.78,44.15-62.42,57.58C213,73.93,261.35,23.17,265.69,20.87ZM365.51,303.8c-11.66,7.39-21.65,16.79-32.15,25.55-7.88,6.58-18.34,10.35-25.06,19.45-3,4-8.57,6-13.87,4.93-4.37-.86-6.16,1-8.83,4-7.88,8.92-19.72,10.55-30.4,5.54-3.76-1.76-7.58-5-12.23-2.38-10.94,6.18-21,7.26-30.23-3.48-7.36-8.53-23.18-5.44-27.08-19.13-.2-.7-.3-1.43-.52-2.13-.68-2.2-2.21-2.18-4.25-2-21.09,1.39-26.06-1.6-31.47-20.4-1.26-4.36-2.22-4.47-6.3-3.76-9.35,1.64-17.85.86-23.29-9.34-2.73-5.12-8.59-6.93-11.12.81-3.39,10.35-9,16.25-20.53,12.64-.7,5.58,1.82,8.94,3.52,12.43,33.74,69.4,107.41,109.36,183.94,97.41C338.91,414,383.9,378.29,411.13,320.26c3-6.38,4.33-11.58-5.81-9.65-9.33,1.77-12.46-3.23-13.2-11.26-.26-2.9-.4-5.81-.65-8.72-.41-4.8-1.61-9.2-7.83-7.15-5.17,1.7-14.61-3.41-13.93,8.39.27,4.64.74,9.68-4.62,12.37,5.26-12.39,1.73-22.62-7.74-31.37-10.74-9.93-20.5-20.63-28.14-33.27a54.52,54.52,0,0,0-19.16-19.19c-13.53-7.81-27.18-15.46-41.2-22.32-12.72-6.22-26.56-2.8-34.36,7.37-2,2.56-3.28,5.73-7,6.34l.2.21c10.32-21.21,23.65-25.62,45.6-16.6,3.84,1.58,9.56,9.05,14.33,0,1.84,3.51-4.31,8.47,1.83,9.49,5,.82,5.08-5.21,7.34-8.72-2.26,14.72-2.26,14.72,7.61,11.64l-.23-.18c.19,3.23-.32,7.23,5.11,5,.91-.37,1.48-1.94,2.31-2,1.52-.17,1,1.32,1,2.21C313,224,318,216,320.8,214.16c1.85,3.35-3.11,5.64-.08,8.44,3.82-.52,4.47-4.3,7.19-6.53-4.83,5.23,1,9,1.86,13.14.65,3,3.59-3.19,6.77-2.12l-3.42,8.29,9.75-7.89c.33,4.14-3.81,5.93-2.49,9.82,8.4-5.09,11.59-12.54,13.22-23.84,1.18,11.31-3.3,18.28-5.59,25.8-.61,1.28-3.41,3,.63,3.4-2.08,12.69,8.93,19.49,13.2,29.34,2.8-1.13.18-4.73,2.72-6.09.69,1.67,1.32,3.19,2.48,6,.51-5.8.89-10.08,1.29-14.59,3.11,2.67.75,6.59,3,9.5.57-5.17,1.11-10,1.82-16.47.54,9.65,1,17.65,1.44,25.64l1.87,0V241.27h2.19v35h2.19V229.63c.72,15.45,2.86,30.64,5.5,47.23,1.11-7.89-.48-14.59,2.24-21.91.58,7.51,1.08,13.95,1.58,20.4,5-33.65-6.4-65.36-10.43-98,18.72,36.52,23,76.09,24.95,117-3.29-2.18-3.16-4.94-3.74-7.24-.78-3.08-1.64-5.93-5.58-4.94s-1.91,4.12-1.71,6.35c1.48,16.62,3.55,18.17,19.87,15.21,3.93-.71,7.85-1.68,11.81-2.06,7.9-.77,10.91-4.22,10.05-12.69q-5.14-50.52-13.91-100.53c-1.18-6.8-.48-15.17-4.25-20-4.89-6.24-13.42,1.46-20.37-.44-.35-.1-.68-.23-1-.35,11.18-.4,6-5.74,3.16-10.42C355.49,86.07,264.9,55.52,187.14,85.92a173.84,173.84,0,0,0-83.6,67.52c-1.53,2.32-6.84,6.6-.79,8.19,14.22,3.71,28.19,7.74,42.05,12.83,9.8,3.6,20.8-.87,30.64-5.15,19.32-8.42,38.39-17.48,59.19-21.93l0,0c-.2,2.23-1.77,2.75-3.64,3.3-17.55,5.14-33.84,13.17-49.89,21.76-8.05,4.3-16.65,7-25.54,9.19-7.35,1.84-17-4.28-21.32,2.09-4.06,6-3.1,15.39-4.47,23.27-4.46,25.66-6.18,51.71-11.14,77.36,5.48-8.41,6.21-18.36,10.87-27.1-2.18,10.72-4.37,21.44-6.8,33.34,7.15-4.39,3.66-12.9,9.57-16.26l-.15-.21-2.33,16.43c5-5.49,4.53-11.61,7.14-16.69,2.3,5.35-2.27,10.29-.24,17.22l4.81-10.74c1.48,5.3-2.67,11.13,3.86,14l0-.05c2.74.3,6.31,1.87,8.07.71,13.74-9.13,18.9-9.15,31,1.27,2.57,2.23,4.45,4.62,7.7.46,5.33-6.81,12.16-7.22,19.44-3.09,8.12,4.62,14.53,11.11,12.3,20.92-1.94,8.57,1.4,10.77,8.62,12.31,6.09,1.3,12.63,4,13.09,11.33.89,14.08,13.29,15.47,21.94,20.62,4.08,2.43,9.3.41,12.8-3.5,2.37-2.64,3.26-5.64,1.43-9-1.4-2.57-5.77-5.21-1.19-7.83,1.24-.71,5.48,2.34,7.35,4.52,4.39,5.14,8.7,7.64,14.34,2.05,5.13-5.08,9.79-10.15,3.47-17.71a83.65,83.65,0,0,1-7.7-11.86c-1-1.66-2.51-3.79.64-5.37,4.21-2.11,2.15,2.07,3.26,3,4.19,3.56,8.69,6.78,12.75,10.49,8.49,7.76,14.14,6.95,20.11-3.29,4.8-8.25,2.8-15.52-4-21.45-7-6.12-12.57-13-14.89-22.25,1.5-.11,3.72-.81,4.16-.21,5.33,7.24,12.43,12.45,19.56,17.65,2.35,1.71,4.26,3.23,4.81,6.62,1.48,9,6.88,10.28,14.38,6.25C360.92,305.76,363.25,304.85,365.51,303.8Zm113.56,7.05C423.33,366.46,363.25,423.1,307,479.17c3.88-.06,11.14-2.61,14.91-6.39q75.15-75.45,150.51-150.71C476.43,318.1,479.4,313.93,479.07,310.85ZM292.18,483.93c10.1.57,170.35-161.7,179-177.37-6.14-.29-10,3.21-13.93,7.21C422.32,348.9,334.66,437.41,299.56,472.39,278.72,493.17,291.64,483.93,292.18,483.93Zm163.61-170.3c-.91-.93-1.82-1.86-2.74-2.78C444.57,312.15,285.37,467.6,274.79,485c6.75,2.1,10-3,13.72-6.71Q353.9,413,419.25,347.8C431.08,336.06,443.59,325,455.79,313.63Zm16.57,16.24-143,142.46c6.35.63,10.57-3.87,14.91-8.21q60.23-60.28,120.51-120.5C469,339.42,472.3,335,472.36,329.87ZM230.61,15.78c-8.21-2.15-11.29.61-14.48,3.8Q154.42,81.49,92.6,143.3a35.25,35.25,0,0,0-4.46,4.78c-.68,1-1.15,3-.61,3.81,1.13,1.71,3.22,1.65,4.79.39a44.92,44.92,0,0,0,6.42-5.89c21.13-25.18,46.64-46,69.54-69.37C188.1,56.77,208.68,37.27,230.61,15.78Zm-16.11,2.5c-8.92-2.72-12,1.2-15.28,4.52L83.53,138.67c-1.29,1.28-2.63,2.52-3.85,3.87-1.44,1.59-3.41,3.38-.9,5.4,2,1.64,4,.69,5.73-1.08,1.5-1.59,3.08-3.1,4.62-4.64,20.86-20.83,41.64-41.73,62.59-62.45C172.1,59.62,192.66,39.66,214.5,18.28Zm-16.92,4.28c-8-2.6-12.1.26-16.09,4.32-14.54,14.8-29.33,29.36-44,44Q104.67,103.76,72,136.69c-1.71,1.72-6,3.4-2.19,6.75,2.57,2.27,4.64-.09,6.46-1.9,1.3-1.28,2.58-2.57,3.87-3.86Q128.7,89,177.39,40.33C183.74,34,190.83,28.46,197.58,22.56Zm-18.9,4.11c-8.58-1.08-12.45,1.93-16.11,5.61-8.19,8.26-16.46,16.44-24.68,24.67q-37.36,37.41-74.67,74.91c-1.68,1.7-6.16,3.24-2.84,6.71,2.9,3,5.15-.17,7.25-2,1.09-1,2.09-2,3.12-3.05Q107.35,96.85,144,60.23C154.92,49.35,166.16,38.76,178.68,26.67ZM349.79,464.08c8.25-2.51,13.82-5.66,18.49-10.34Q411.06,410.9,453.79,368c4.71-4.73,8-10.24,9.09-16.56Zm-145-138.77c-13.25,1.57-16.38,6.75-11.08,15.37a20.24,20.24,0,0,0,9.89,8.24c4.61,1.84,6.82.55,6.7-4.65-.14-6.29.17-13.37,5.53-17,7-4.67,5.79-10,3.93-16-2.15-6.87-7.41-10.52-14.08-12.31-3.13-.84-5.68.29-7.59,2.93s-1.33,4.64,1,6.59a9.21,9.21,0,0,1,1.57,2.51c-.6.06-1.45-.13-1.77.2C192.09,318.3,193.27,322,204.82,325.31ZM154.47,36.77c-7.93-.68-12.83,2.67-17.22,7.13-11.75,11.9-23.63,23.67-35.44,35.5q-24.27,24.32-48.48,48.68c-1.52,1.55-4.92,3.13-1.91,6.07,2.66,2.6,4.56.22,6.35-1.56,5.43-5.36,10.82-10.76,16.24-16.13Zm33.67,274.64c.17-8.61-8.18-16.21-17.64-16.53-10.06-.34-12.26,6.51-12.93,14.16-.89,10.23,7.44,21.08,15.8,21.48C183.71,331,187.85,325.66,188.14,311.41Zm156.8,94.39c-33,21.24-56.78,52.35-85.52,78.17,1.46,1.57-1.47,5.1,0,6.67C287.39,464,318.52,434.11,344.94,405.8ZM246.42,13.48C234.77,14,172,73.1,164,90.13,194.22,69,217.13,40,246.42,13.48ZM243.8,486c9.72.59,65.45-51.79,71.58-66.55C288.45,437.63,268.54,463.26,243.8,486ZM186.86,77.8c9.68-.65,62.84-49.8,69.65-64.38C248.66,13.82,202.36,56.62,186.86,77.8ZM295.64,426c-25,15.2-42,39.15-64.48,58.81C240.38,486,285,445.32,295.64,426ZM52.07,120.7l69-68.68C93.92,70.66,71.51,94.09,52.07,120.7Zm178.5,241c3.77-.63,10.42-.56,10.23-5.17-.28-7,.7-15.68-7-20.51-10.31-6.48-13.79-4.34-14.83,7.46-.41,4.74-.6,7.79,4.71,8.81,1.14.21,2.52-.19,1.45,2.29C222.75,360.18,223.94,361.55,230.57,361.7ZM220,482.7c1,1.47-4.7,4.85,3.08,4.42,20.6-16.67,37.9-36.89,57-55.21,3.11-6.46-2.65-2.91-4-4.36C256.58,445,238.86,464.48,220,482.7Zm222.81-95.51L384.1,445.11A223.8,223.8,0,0,0,442.83,387.19Zm-176.3,45.44c-7.62-2.08-10.56.46-13.43,3.34-13.58,13.64-27.23,27.22-40.75,40.93-1.54,1.57-5.24,3.3-2.88,5.85s5.37.63,7.61-1.57ZM239.11,67.17c8,.57,48.23-36.18,54.23-49.51C285.83,17.63,249.62,50.7,239.11,67.17Zm11.56,367.17c-5.19-3.95-8.18-1.94-10.81.67q-20.07,19.92-40,40c-1.43,1.44-4.09,3.2-2.34,5.29s4.76,1.81,6.84-.23C219.77,465,235.08,449.76,250.67,434.34ZM54.47,381.72c.75-.26,1.61-.3,2.06-.75,12-12,24-24.06,35.85-36.23,1.45-1.48.44-3.58-.86-4.88s-2.74-.5-3.8.56c-11.78,11.76-23.62,23.46-35.2,35.42C50.41,378,51.64,380.48,54.47,381.72Zm198-314.63c8,.88,44.93-32.32,52.42-47.13C297.14,19.81,267.12,46.8,252.48,67.09ZM316,25c-.56-1.07-.8-2.37-1.51-2.75-3.38-1.78-5.31.76-7.35,2.8C294.82,37.35,282.48,49.57,270.33,62c-1.7,1.73-6.13,3.59-3.18,6.58s5.88-.28,8.2-2.58l36.86-36.83C313.47,27.88,314.62,26.5,316,25ZM381.1,56.13c.27-2.33-.45-3.43-2-4-2.61-1.07-4.09.74-5.61,2.26-10.32,10.3-20.69,20.56-30.85,31-1.64,1.69-5.87,3.43-2.07,6.84,3.42,3.08,5.28-.51,7.13-2.32,10.15-9.94,20.18-20,30.21-30.09C379.22,58.52,380.3,57.06,381.1,56.13Zm-143,376.58c-5.07-2.6-7.94-1.76-10.83,1.15-12.75,12.86-25.64,25.58-38.42,38.4-1.46,1.46-3.94,3.27-2.27,5.4s4.44,2.09,6.66-.13C208,462.78,222.78,448,238.13,432.71ZM276.55,68.5c6.28,3.89,8.89,1.2,11.52-1.43,11.54-11.55,23.13-23,34.59-34.67,1.58-1.61,5.16-3.31,2.93-5.94s-5.14-.95-7.45,1.33C304.52,41.19,290.84,54.53,276.55,68.5ZM225.91,432.16c-6.83-4.6-9.51-1.05-12.3,1.73-11.57,11.53-23.13,23.05-34.54,34.74-1.49,1.53-5.37,3-3,5.82,2.1,2.5,5,1.72,7.55-.76C197.49,460,211.44,446.35,225.91,432.16Zm62.3-361.6c5.91,4.69,8.43,1.49,11-1.06,11.34-11.29,22.69-22.58,33.84-34,1.36-1.4,5.51-2.65,2.35-5.8-3-3-5.24-.25-7.31,1.77C314.9,44.34,301.74,57.27,288.21,70.56ZM132.31,455.31a44.24,44.24,0,0,0,3.69-3q16.49-16.5,32.88-33.09c1.38-1.41,3.64-3.2,1.38-5.37-1.84-1.77-4-1-5.76.72Q147.22,431.86,130,449.16c-1,1-2.23,2.24-1.06,3.7A15.66,15.66,0,0,0,132.31,455.31ZM346.06,35.76c-.75-1.13-1.12-2.33-1.91-2.77-2.95-1.65-4.7.62-6.48,2.4-11.07,11.07-22.19,22.1-33.12,33.31-1.7,1.74-5.94,3.58-2.65,6.76,2.81,2.71,5.27-.24,7.32-2.29Q325.83,56.57,342.4,39.9C343.66,38.63,344.78,37.22,346.06,35.76ZM190.94,424.81c.52-1.89-.22-2.43-1.28-3-2.82-1.47-4.7-.18-6.65,1.79-10.77,10.83-21.66,21.53-32.36,32.42-1.81,1.85-6,3.79-3.46,6.8,2.83,3.4,5.86.39,8.22-2q16.58-16.59,33.11-33.22C189.52,426.64,190.38,425.48,190.94,424.81ZM324.5,83.7c1-.44,2.19-.63,2.89-1.33Q345.23,64.7,362.91,46.9c1.35-1.35,2.08-3,.18-4.62a3.25,3.25,0,0,0-4.82.18Q340.09,60.57,322,78.71c-1,1-1.89,2.45-.54,3.74C322.16,83.13,323.4,83.27,324.5,83.7Zm9.08,4.46a6.94,6.94,0,0,0,2.61-1.08q17.87-17.64,35.58-35.43c1.26-1.27,2.33-2.9,0-4.45-1.7-1.13-3.25-1.44-4.84.14C355.1,59.16,343.2,70.94,331.4,82.81,328.72,85.51,329.85,87.27,333.58,88.16ZM99.84,432.35a7.77,7.77,0,0,0,2.14-1q17.33-17.29,34.59-34.66c1.61-1.62,1.31-3.23-.42-4.54s-3.41-.46-4.75.87q-16.59,16.53-33.13,33.08c-1.35,1.35-2.42,2.87-1,4.67A9.13,9.13,0,0,0,99.84,432.35ZM44.55,364.77c1.49-1.25,3.19-2.5,4.68-4,5.16-5.08,10.27-10.22,15.37-15.36q8.43-8.46,16.83-17c1.63-1.64,2.74-3.54,1.57-5.8s-3-1.69-4.4-.29c-12.08,12-24.16,24-36.07,36.14C40.42,360.69,41,363.16,44.55,364.77Zm34.83-48.71c-.66-1-1-2.31-1.8-2.66-1.81-.82-3.59-.07-4.94,1.26q-17,16.83-33.95,33.74c-1.72,1.71-2.72,4-1.22,5.81,2.61,3.14,4.5-.09,6.05-1.62,11.11-10.94,22.09-22,33.08-33.06A43.46,43.46,0,0,0,79.38,316.06Zm61.37,143.66a11.57,11.57,0,0,0,3-1.53q17.81-17.65,35.47-35.44c1.15-1.16,2.93-2.84.88-4.46a4.22,4.22,0,0,0-5.92.42q-17.67,17.78-35.32,35.57c-1.16,1.17-1.62,2.54-.8,3.84C138.52,458.91,139.8,459.19,140.75,459.72ZM355.08,40.31c-.68-1.12-1-2.35-1.77-2.78-3-1.67-4.69.71-6.44,2.45C336.3,50.51,325.69,61,315.29,71.7c-1.72,1.77-6.3,3.32-3.5,6.58s5.69.39,8.12-2.06c10.24-10.34,20.59-20.56,30.86-30.87C352.29,43.83,353.58,42.08,355.08,40.31ZM162.81,411.25c-.9-1.09-1.37-2.13-2.17-2.56-3-1.66-4.72.8-6.45,2.52q-15.52,15.39-30.9,30.93c-1.59,1.61-4.9,3.31-2.21,6.14,3,3.19,5.21,0,7.17-1.93q15.54-15.37,30.93-30.89C160.43,414.21,161.5,412.79,162.81,411.25ZM88,334.26c-.89-4.31-2.89-4.8-5.37-2.35-11.58,11.43-23.06,23-34.57,34.46-1.66,1.66-2.69,3.45-.79,5.63,3,3.41,4.41-.12,5.87-1.56Q69,354.86,84.59,339A33.41,33.41,0,0,0,88,334.26Zm62.18,68.27a17,17,0,0,0-2.69,1.8q-16.92,16.92-33.79,33.89c-1.31,1.31-2.6,2.71-.87,4.57,1.92,2.06,3.9,1.49,5.63-.23q17-16.89,33.83-33.84c1.24-1.24,2.61-2.77.71-4.53A15.53,15.53,0,0,0,150.17,402.53ZM359,104.21c2.08.29,3.12-1.4,4.35-2.62q15.86-15.81,31.6-31.7c1.35-1.36,3.89-2.75,1.54-5.26s-4.38-1.49-6.45.61Q373.94,81.53,357.7,97.71C354.79,100.61,355.27,102.64,359,104.21ZM123.66,381.7c-.85-1.19-1.3-2.29-2.12-2.86-2.41-1.66-4,.15-5.51,1.68Q100.3,396.26,84.57,412c-1.93,1.93-3.61,3.87-1,6.36,2.9,2.76,4.48-.06,6.16-1.73q15.38-15.33,30.66-30.75A46.26,46.26,0,0,0,123.66,381.7ZM98.79,351.58c-.92-1.3-1.37-2.4-2.18-3-2.58-1.81-4,.59-5.33,2q-15.84,15.68-31.52,31.51c-1.76,1.76-4.18,3.61-1.67,6.35,3.26,3.56,5.13-.1,6.94-1.87q15.12-14.87,30-30A45.17,45.17,0,0,0,98.79,351.58ZM405.5,154.11a6.32,6.32,0,0,0,1.87-.87q18-18.08,36-36.24c1.13-1.15.29-2.68-.68-3.89-1.12-1.4-2.35-1.59-3.59-.34-12,12-24.14,24-35.94,36.26C401.24,151,403.51,152.93,405.5,154.11ZM351.1,98.54c1.08-.49,2.28-.71,3-1.43q17.08-16.92,34-34c1.39-1.39,2-3,.31-4.69-2.05-2.08-3.85-1.35-5.58.38l-33.18,33.3c-1.31,1.3-2.65,2.73-1.27,4.64C349,97.57,350.17,98,351.1,98.54ZM401.48,69.2c-.88.36-2.11.51-2.81,1.2q-17.07,16.91-34,33.92c-1.56,1.55-1.62,3.11,0,4.65,2.15,2.07,4.12.91,5.7-.65C381.19,97.56,392,86.71,402.78,75.9,405.53,73.14,405.38,70.92,401.48,69.2ZM104,359.41a11.22,11.22,0,0,0-2.09-2.83c-1.37-1.07-2.77-.16-3.81.87Q81.24,374.3,64.4,391.22a3.51,3.51,0,0,0-.49,4.88c.88,1.17,2.4,2.37,3.63,1.14,12-12,23.95-24.07,35.88-36.15C103.65,360.86,103.68,360.43,104,359.41Zm41.53,41.43c-.6-1.09-.86-2.34-1.6-2.75-3-1.69-4.64.71-6.38,2.44q-15,14.91-29.88,29.94c-1.81,1.84-5.46,3.84-1.78,6.9,2.82,2.33,4.63-.7,6.28-2.33,10-9.89,20-19.88,29.92-29.88A51.37,51.37,0,0,0,145.57,400.84ZM432.06,100.33c-.8-1.39-1.09-2.72-1.87-3.14-2.52-1.33-4,.78-5.43,2.24q-15.4,15.31-30.7,30.74c-1.64,1.67-4.58,3.57-2,6.31,3.25,3.48,5.11-.37,6.91-2.13,9.84-9.62,19.55-19.36,29.24-29.12A53.48,53.48,0,0,0,432.06,100.33ZM92.75,426a11.21,11.21,0,0,0,2.69-1.48q16.91-16.85,33.69-33.79c1.32-1.34,2-3,.07-4.56a3.21,3.21,0,0,0-4.77.28c-11.25,11.24-22.55,22.44-33.69,33.79C88.2,422.78,89.77,424.71,92.75,426Zm295.43-295.5a7.69,7.69,0,0,0,1.9-1q17.39-17.36,34.71-34.78c1.18-1.18,1.14-2.46-.13-3.73-1.53-1.54-3.16-1.86-4.71-.31-11.34,11.32-22.7,22.62-33.87,34.1C383.52,127.34,385.48,129.25,388.18,130.46Zm50-22.5c-.71-1.22-1-2.46-1.81-3-1.88-1.22-3.35,0-4.68,1.34q-16.18,16.15-32.41,32.3c-2.09,2.08-3.12,4.55-.65,6.52,2.18,1.73,4-.7,5.42-2.16q15.44-15.37,30.75-30.86A52,52,0,0,0,438.2,108ZM407,346.15c10.17-10.29,20.38-20.54,30.5-30.88,1.83-1.87,3.58-4.46.78-6.54-2.17-1.61-4,.73-5.49,2.25C422.79,321.44,410.75,330.27,407,346.15ZM68,313.68c-3.31-3.06-6.06-2.3-8.65.27Q47,326.22,34.78,338.57c-1.89,1.9-3.52,4.37-1.12,6.59,2.14,2,3.92-.43,5.38-1.86q13.2-13,26.27-26A33.56,33.56,0,0,0,68,313.68ZM416.61,148.21c9.12-1,30.63-17.5,32.11-23.22a4.76,4.76,0,0,0-.9-3.87c-1.68-1.74-3.27-.29-4.57,1C434.82,130.33,426.41,138.59,416.61,148.21ZM49.61,318.5a3,3,0,0,0-4.38-2.85c-6.41,4.66-12.51,9.87-16.55,16.8-1.06,1.82,1.27,5.3,3.22,3.63C38.19,330.71,43.73,324.47,49.61,318.5Zm-21,8c2.87-3.92,8.72-5.85,9.71-11.8.08-.43-2.61-2.1-3.31-1.76-4.85,2.36-9.6,5.1-9.76,11.41C25.26,325.59,26.19,327.12,28.65,326.51ZM438.4,141.78c4.52,1.74,8-.37,10.8-3.09,2.23-2.2,7.77-4.18,4.34-8.31-4-4.84-5.88,1.43-8.11,3.25C442.76,135.81,439.55,137.88,438.4,141.78ZM144.2,300c-6-2.64-12-1.79-19.37,0C132.12,305.76,138.16,302.73,144.2,300ZM414.76,158.1c-.54-1.62-1-3.64-3.23-3.24s-3.92,1.85-3.6,4.28c.2,1.51.71,3.79,2.94,3.41S414.4,160.43,414.76,158.1ZM27.59,312.92c.13-1.77-.94-2.3-2.46-2.51-2.17-.3-3.38.64-3.25,2.77.08,1.17-.17,3.05,2,2.89C25.81,315.92,26.84,314.55,27.59,312.92Zm392.77,4.78c3.45-2.84,7.13-4.1,6.74-9.05C421.9,309.28,419.87,311.82,420.36,317.7Z"/><path class="b5283eb5-7c19-4a94-96f3-99f2cee8474b" d="M352.41,240.74c.89-.94,2-1.06,2.49.14.66,1.61-.41,2.64-1.85,3.26C349,243.73,351.8,242,352.41,240.74Z"/><path class="b5283eb5-7c19-4a94-96f3-99f2cee8474b" d="M368.84,179.19c-26.17,8.91-46.23-6.11-66.71-17.59-10.59-5.93-20.7-8.52-32.17-5.42-11.92,3.22-23.7,6.92-35.58,10.28-9.12,2.57-16.28,7.25-21.09,15.89a66.87,66.87,0,0,1-18.66,21.17c6.35-9.94,12.77-19.79,17.9-30.4a17.14,17.14,0,0,1,8.59-8.16c19.55-8.52,39.05-17.34,61-17.47,9.09-.05,16.65,3.34,24.13,8.61C325,169.27,343.72,182.92,368.84,179.19Z"/><path class="b5283eb5-7c19-4a94-96f3-99f2cee8474b" d="M434,289.9,418,185.58A395.12,395.12,0,0,1,434,289.9Z"/><path class="b5283eb5-7c19-4a94-96f3-99f2cee8474b" d="M426.15,285.3c4.2,4.17,2.86,8.08-1.35,10.76-3.61,2.29-7.76,2-10.72-1.74-2.65-3.29-2.33-6.78.44-9.86,3.53-3.94,7.19-4.15,10.68.15-1.82-1.74-3.84-1.6-6.74-.38l8.12,6.12C427.2,289.34,427.21,287.34,426.15,285.3Z"/><path class="b5283eb5-7c19-4a94-96f3-99f2cee8474b" d="M231.92,213.27c-7.16,11.2-17.77,15.39-30.57,14.91-3.6-.13-7.75-.2-5.36-5.94l0,.13c8.75,6.06,16.1-.69,24-2.64,4.51-1.12,7.2-5.87,12.13-6.25Z"/><path class="b5283eb5-7c19-4a94-96f3-99f2cee8474b" d="M211.21,195.94c1.86,7.65-3.27,10.28-6.83,13.71Z"/><path class="b5283eb5-7c19-4a94-96f3-99f2cee8474b" d="M196,222.24c-7,8.44-6.8-.12-9.18-3.81,4.32-.66,4.87,5.78,9.17,4A.43.43,0,0,0,196,222.24Z"/><path class="b5283eb5-7c19-4a94-96f3-99f2cee8474b" d="M381.22,170.44h4.32l0,.49-4.57.43Z"/><path class="b5283eb5-7c19-4a94-96f3-99f2cee8474b" d="M135.25,248.4c-.28.62-.55,1.23-.83,1.84a6.79,6.79,0,0,1-.49-2,6,6,0,0,1,.76-1.84C134.87,247.06,135.06,247.72,135.25,248.4Z"/><path class="b5283eb5-7c19-4a94-96f3-99f2cee8474b" d="M136.64,275.83l-.84-6.8c2.72,2.32.9,4.44.64,6.54Z"/><path class="b5283eb5-7c19-4a94-96f3-99f2cee8474b" d="M239,148.86h5.69l0,.53-5.69-.5Z"/><path class="b5283eb5-7c19-4a94-96f3-99f2cee8474b" d="M308.82,209.26c.08-1.26.15-2.52.23-3.77.4.18,1.15.34,1.16.55.08,1.29.22,2.72-1.62,3Z"/><path class="b5283eb5-7c19-4a94-96f3-99f2cee8474b" d="M149.73,295.8l-.39-4.32c2.09.28.2,1.39.4,2.09a7.78,7.78,0,0,1,0,2.16A.24.24,0,0,1,149.73,295.8Z"/><path class="b5283eb5-7c19-4a94-96f3-99f2cee8474b" d="M98,292.33c1.83,4.24,1.18,7.68-3,9.9a7.47,7.47,0,0,1-8.16-.44c-3.79-2.68-5.07-6.61-2.28-10.22s7-.57,8,1.59C95.79,300.5,96.24,293.4,98,292.33Z"/><path class="b5283eb5-7c19-4a94-96f3-99f2cee8474b" d="M99,200.74a6.45,6.45,0,0,1,.51-6.81c1.66,2.6,1,4.66-.75,6.61Z"/><path class="b5283eb5-7c19-4a94-96f3-99f2cee8474b" d="M75.36,286.05l.89,5-1,.12v-5.07Z"/><path class="b5283eb5-7c19-4a94-96f3-99f2cee8474b" d="M176,319.07c4.16.18-1.75-4.64,2.29-4.59,1.48,0,3,0,2.59,2-.51,2.69-2.81,2.51-4.87,2.55Z"/><path class="b5283eb5-7c19-4a94-96f3-99f2cee8474b" d="M176,319.05c.88,3.28.54,5.72-5.27,5.34,2.93-1.61,6.12-2.06,5.26-5.32Z"/></g></svg>