<svg id="bb76e48f-fd25-42c0-8c1e-378cd854d36f" data-name="Layer 2" xmlns="http://www.w3.org/2000/svg" viewBox="0 0 1920 1094"><defs><style>.a6e5a8d3-6817-4cf9-9bf4-2adcab2af893{opacity:0.8;}.b743197f-687a-486c-aa0c-4cb34035cc58{fill:#4a75cb;}.b185c292-a61f-44b9-a22b-377287805b02{fill:#40026c;}.b6698471-66b8-403f-b6e3-b86c1de5ac2a{fill:#8e163e;}.fba71e48-0b24-4b0d-8afd-43af6066f21f{fill:#d2345a;}</style></defs><g class="a6e5a8d3-6817-4cf9-9bf4-2adcab2af893"><path class="b743197f-687a-486c-aa0c-4cb34035cc58" d="M1368.75,141.58,1238.53,259.14a13.5,13.5,0,0,0-1,19.07l32.77,36.3c1.51,1.68,6.76,5.19,6.76,5.19l4.65-4.28a8,8,0,0,0,.8-.74h0a8.29,8.29,0,0,0,1.82-3,35.71,35.71,0,1,1,38.05,47.11,5.61,5.61,0,0,0-3.37,1.63h0l-4.87,4.47,40.74,43.33a13.32,13.32,0,0,0,18.81,1l37.2-33.58a6.24,6.24,0,0,1,10.19,3,35.75,35.75,0,0,0,64,10.41c6.92-9.95,7.6-26.94,1.55-37.45a36,36,0,0,0-18.41-15.9,6,6,0,0,1-1.87-10.13l37.44-33.79a13.31,13.31,0,0,0,1-18.8L1387.12,142.52A13,13,0,0,0,1368.75,141.58Z"/><path class="b185c292-a61f-44b9-a22b-377287805b02" d="M1481.92,355.88A36,36,0,0,0,1463.51,340a6,6,0,0,1-1.87-10.13l37.43-33.79a13.31,13.31,0,0,0,1-18.8L1382.35,146.9A13,13,0,0,0,1364,146L1233.75,263.51a13.51,13.51,0,0,0-1,19.08l32.76,36.3a8.32,8.32,0,0,0,14-2.85,35.71,35.71,0,1,1,38,47.12,5.69,5.69,0,0,0-3.56,9.47l36.06,39.95a13.33,13.33,0,0,0,18.81,1L1406.14,380a6.24,6.24,0,0,1,10.19,3,35.74,35.74,0,0,0,64,10.41C1487.28,383.39,1488,366.39,1481.92,355.88Z"/></g><g class="a6e5a8d3-6817-4cf9-9bf4-2adcab2af893"><path class="b743197f-687a-486c-aa0c-4cb34035cc58" d="M627,835.89,549.37,878.2a6.81,6.81,0,0,0-2.71,9.23l11.79,21.62a29.26,29.26,0,0,0,2.71,3.34l2.77-1.55a3.72,3.72,0,0,0,.48-.27h0a4.17,4.17,0,0,0,1.25-1.26,18,18,0,1,1,13.11,27.54,2.85,2.85,0,0,0-1.84.4h0L574,938.87l14.87,26a6.72,6.72,0,0,0,9.1,2.68l22.16-12.09a3.15,3.15,0,0,1,4.65,2.65,18,18,0,0,0,30.14,12.61c4.56-4.07,6.89-12.31,5.16-18.17a18.14,18.14,0,0,0-7.16-9.94,3,3,0,0,1,.28-5.18l22.3-12.16a6.7,6.7,0,0,0,2.67-9.1l-42.35-77.66A6.55,6.55,0,0,0,627,835.89Z"/><path class="b185c292-a61f-44b9-a22b-377287805b02" d="M657.25,954.14a18.16,18.16,0,0,0-7.16-9.95,3,3,0,0,1,.27-5.18l22.3-12.16a6.71,6.71,0,0,0,2.68-9.1L633,840.09a6.56,6.56,0,0,0-8.89-2.61l-77.58,42.31a6.79,6.79,0,0,0-2.71,9.22l11.79,21.63a4.19,4.19,0,0,0,7.21.25,18,18,0,1,1,13.11,27.54,2.87,2.87,0,0,0-2.86,4.22l13,23.8a6.7,6.7,0,0,0,9.1,2.68L617.3,957a3.15,3.15,0,0,1,4.65,2.65,17.81,17.81,0,0,0,2.18,7.95,18,18,0,0,0,28,4.66C656.65,968.24,659,960,657.25,954.14Z"/></g><g class="a6e5a8d3-6817-4cf9-9bf4-2adcab2af893"><path class="b6698471-66b8-403f-b6e3-b86c1de5ac2a" d="M861.58,318.67c.25-5.15-3.35-11.44-7.91-13.86a15.34,15.34,0,0,0-10.24-1.57,2.58,2.58,0,0,1-3-3.23l5.86-20.66a5.68,5.68,0,0,0-3.91-7l-72-20.39a5.54,5.54,0,0,0-6.84,3.82l-20.38,71.88a5.73,5.73,0,0,0,1.43,5.59l-1-.21,2.51,1.34h0a4.72,4.72,0,0,0,1,.38l1.57.45h0l18.46,5.23a3.53,3.53,0,0,0,4.42-4.2A15.21,15.21,0,1,1,796,344.62a2.42,2.42,0,0,0-.7,2.85l-1.22,0,2.24,1.19h0a2.35,2.35,0,0,0,.54.22L819,355.09a5.67,5.67,0,0,0,7-3.91l5.82-20.53a2.66,2.66,0,0,1,4.35-1.24,15,15,0,0,0,6.09,3.38A15.22,15.22,0,0,0,861.58,318.67Z"/><path class="fba71e48-0b24-4b0d-8afd-43af6066f21f" d="M851.39,303.6A15.34,15.34,0,0,0,841.15,302a2.58,2.58,0,0,1-3-3.23L844,278.14a5.68,5.68,0,0,0-3.91-7l-72-20.39a5.53,5.53,0,0,0-6.84,3.82L741,326.44a5.75,5.75,0,0,0,4,7.1l20,5.68a3.54,3.54,0,0,0,4.42-4.2,15.21,15.21,0,1,1,24.39,8.39,2.43,2.43,0,0,0,.86,4.22l22,6.25a5.68,5.68,0,0,0,7-3.91l5.82-20.54a2.66,2.66,0,0,1,4.35-1.23,15,15,0,0,0,6.09,3.38,15.22,15.22,0,0,0,19.36-14.12C859.55,312.3,856,306,851.39,303.6Z"/></g><g class="a6e5a8d3-6817-4cf9-9bf4-2adcab2af893"><path class="b6698471-66b8-403f-b6e3-b86c1de5ac2a" d="M1765.2,557.22c-6-3.26-15.59-2.58-21.1,1.46a20.32,20.32,0,0,0-7.76,11.32,3.42,3.42,0,0,1-5.57,1.68l-21.28-18.88a7.5,7.5,0,0,0-10.6.63l-65.75,74.11a7.34,7.34,0,0,0,.62,10.36l74,65.68a7.61,7.61,0,0,0,7.49,1.52l-.81,1,3-2.22,0,0a7.61,7.61,0,0,0,1-.95l1.43-1.62h0l16.88-19a4.69,4.69,0,0,0-2.47-7.69,20.14,20.14,0,1,1,24-24.27,3.21,3.21,0,0,0,3,2.49l-.75,1.43,2.7-2h0a3.61,3.61,0,0,0,.59-.52L1784.11,629a7.52,7.52,0,0,0-.64-10.61l-21.15-18.76a3.52,3.52,0,0,1,1-5.9,20.16,20.16,0,0,0,1.85-36.55Z"/><path class="fba71e48-0b24-4b0d-8afd-43af6066f21f" d="M1741.34,560.71a20.3,20.3,0,0,0-7.76,11.31,3.41,3.41,0,0,1-5.56,1.68l-21.28-18.88a7.52,7.52,0,0,0-10.61.63l-65.75,74.11a7.34,7.34,0,0,0,.62,10.36l74,65.68a7.62,7.62,0,0,0,10.76-.64l18.3-20.63a4.7,4.7,0,0,0-2.47-7.7,20,20,0,0,1-9.29-4.91,20.14,20.14,0,1,1,33.34-19.35,3.21,3.21,0,0,0,5.53,1.4l20.15-22.71a7.51,7.51,0,0,0-.63-10.6l-21.15-18.77a3.52,3.52,0,0,1,1-5.9,19.9,19.9,0,0,0,7.55-5.32,20.18,20.18,0,0,0-5.7-31.23C1756.43,556,1746.86,556.66,1741.34,560.71Z"/></g></svg>